<svg xmlns="http://www.w3.org/2000/svg" width="600" height="400" viewBox="0 0 600 400"><rect width="100%" height="100%" fill="#99C022"/><path fill="#FFFFFF" d="m125.66 185.125-1.17 6.93q1.11-.23 2.12-.34 1.01-.1 1.95-.1 2.62 0 4.63.78 2 .78 3.35 2.16 1.36 1.38 2.05 3.24.69 1.85.69 3.99 0 2.64-.93 4.83-.93 2.18-2.59 3.73-1.66 1.56-3.92 2.41-2.27.85-4.93.85-1.57 0-2.97-.32-1.4-.33-2.63-.87-1.24-.54-2.28-1.24-1.05-.7-1.88-1.48l1.75-2.42q.55-.78 1.45-.78.58 0 1.17.37.6.37 1.37.8.77.44 1.82.81t2.52.37q1.56 0 2.76-.51 1.19-.51 1.99-1.41.79-.91 1.19-2.17.41-1.25.41-2.72 0-2.71-1.58-4.24t-4.66-1.53q-2.37 0-4.85.87l-3.54-1.01 2.76-16.15h16.42v2.42q0 1.22-.76 1.98-.76.75-2.58.75zm52.03-.23h-14.77v9.85h12.47v4.94h-12.47v13.55h-6.21v-33.26h20.98zm4.23-5.84h5.68v34.18h-5.68zm21.81 10.21q2.62 0 4.77.86 2.15.85 3.68 2.41t2.36 3.82q.82 2.25.82 5.03 0 2.81-.82 5.06-.83 2.26-2.36 3.85-1.53 1.58-3.68 2.43t-4.77.85q-2.65 0-4.81-.85t-3.69-2.43q-1.53-1.59-2.37-3.85-.84-2.25-.84-5.06 0-2.78.84-5.03.84-2.26 2.37-3.82t3.69-2.41q2.16-.86 4.81-.86m0 19.94q2.94 0 4.35-1.97 1.42-1.98 1.42-5.8t-1.42-5.82q-1.41-2-4.35-2-2.99 0-4.43 2.01-1.44 2.02-1.44 5.81 0 3.8 1.44 5.79 1.44 1.98 4.43 1.98m45.35-19.57h4.33l-7.5 23.6h-4.56q-.78 0-1.08-1.01l-4.23-13.64q-.21-.69-.38-1.37t-.29-1.37q-.13.69-.31 1.39-.17.71-.38 1.39l-4.3 13.6q-.27 1.01-1.22 1.01h-4.37l-7.47-23.6h4.53q.62 0 1.06.3t.57.76l3.38 12.6q.26 1.04.45 2.03.2.99.34 1.98.25-.99.54-1.98.28-.99.61-2.03l3.91-12.65q.13-.46.54-.75.4-.3.97-.3h2.51q.6 0 1.02.3.43.29.57.75l3.79 12.65q.3 1.04.57 2.04.26 1 .51 1.99.3-1.96.86-4.03l3.47-12.6q.16-.46.57-.76.42-.3.99-.3m12.03 9.09h10.72q0-1.11-.31-2.08-.31-.98-.93-1.72-.62-.73-1.58-1.16-.95-.42-2.22-.42-2.46 0-3.87 1.4-1.42 1.4-1.81 3.98m14.49 3.42H261q.13 1.82.64 3.14.51 1.33 1.33 2.19.83.86 1.97 1.29 1.14.42 2.52.42t2.38-.32 1.75-.71 1.31-.72q.56-.32 1.09-.32.71 0 1.06.53l1.63 2.07q-.94 1.1-2.11 1.85-1.18.75-2.45 1.2-1.28.45-2.6.63t-2.57.18q-2.46 0-4.57-.81-2.12-.82-3.68-2.42-1.57-1.6-2.46-3.95-.9-2.36-.9-5.46 0-2.42.78-4.55t2.24-3.7q1.46-1.58 3.57-2.5 2.1-.92 4.75-.92 2.23 0 4.11.72 1.89.71 3.25 2.08 1.35 1.37 2.12 3.36.78 1.99.78 4.54 0 1.29-.28 1.74-.28.44-1.06.44m10.6-11.08.35 2.67q1.1-2.12 2.62-3.33t3.59-1.21q1.63 0 2.62.72l-.37 4.25q-.11.42-.33.59t-.59.17q-.34 0-1.02-.11-.68-.12-1.32-.12-.95 0-1.68.28-.74.27-1.32.79-.59.52-1.04 1.26-.45.73-.84 1.67v14.54h-5.68v-23.6h3.34q.87 0 1.21.31.35.31.46 1.12m30.41 17.34h6.26q1.72 0 2.89-.41 1.18-.42 1.88-1.11t1.01-1.61.31-1.95q0-1.08-.34-1.95-.35-.86-1.08-1.47-.74-.61-1.9-.93t-2.8-.32h-6.23zm5.27-23.64h-5.27v9.61h4.92q3.18 0 4.8-1.15t1.62-3.66q0-2.6-1.47-3.7t-4.6-1.1m-11.46-4.79h11.46q3.26 0 5.59.62 2.32.62 3.8 1.77 1.49 1.15 2.18 2.79.69 1.63.69 3.68 0 1.17-.35 2.24-.34 1.07-1.07 2-.72.93-1.84 1.69-1.11.76-2.65 1.29 6.85 1.54 6.85 7.4 0 2.12-.81 3.91-.8 1.8-2.34 3.1t-3.8 2.03q-2.25.74-5.15.74h-12.56zm39.84 9.29q2.62 0 4.77.86 2.15.85 3.68 2.41t2.36 3.82q.83 2.25.83 5.03 0 2.81-.83 5.06-.83 2.26-2.36 3.85-1.53 1.58-3.68 2.43t-4.77.85q-2.65 0-4.81-.85t-3.69-2.43q-1.53-1.59-2.37-3.85-.84-2.25-.84-5.06 0-2.78.84-5.03.84-2.26 2.37-3.82t3.69-2.41q2.16-.86 4.81-.86m0 19.94q2.94 0 4.36-1.97 1.41-1.98 1.41-5.8t-1.41-5.82q-1.42-2-4.36-2-2.99 0-4.43 2.01-1.44 2.02-1.44 5.81 0 3.8 1.44 5.79 1.44 1.98 4.43 1.98m30.64-19.57h5.68v23.6h-3.48q-1.12 0-1.42-1.03l-.39-1.89q-1.45 1.47-3.2 2.38t-4.12.91q-1.93 0-3.41-.66-1.49-.65-2.5-1.85-1.01-1.19-1.53-2.84-.52-1.64-.52-3.62v-15h5.69v15q0 2.16 1 3.34 1 1.19 3 1.19 1.47 0 2.76-.66 1.29-.65 2.44-1.8zm26.1 16.61v-10.58q-.94-1.18-2.09-1.66t-2.46-.48q-1.29 0-2.33.48-1.03.48-1.77 1.46-.73.98-1.12 2.49-.4 1.5-.4 3.55 0 2.07.34 3.51.33 1.43.95 2.34t1.52 1.31q.9.41 2 .41 1.77 0 3.01-.74 1.25-.73 2.35-2.09m2.21-16.61h3.47v31.31H407v-10.7q-1.4 1.5-3.17 2.42-1.77.91-4.12.91-1.93 0-3.54-.8t-2.77-2.33q-1.17-1.53-1.8-3.79-.63-2.25-.63-5.15 0-2.62.71-4.88.72-2.25 2.05-3.91 1.33-1.65 3.2-2.58 1.86-.94 4.18-.94 2.21 0 3.71.76 1.49.76 2.66 2.05l.3-1.33q.3-1.04 1.43-1.04m23.73 0h5.69v23.6h-3.48q-1.12 0-1.42-1.03l-.39-1.89q-1.45 1.47-3.2 2.38t-4.12.91q-1.93 0-3.41-.66-1.49-.65-2.5-1.85-1.01-1.19-1.53-2.84-.52-1.64-.52-3.62v-15h5.68v15q0 2.16 1 3.34 1.01 1.19 3.01 1.19 1.47 0 2.76-.66 1.28-.65 2.43-1.8zm15.78 9.09h10.72q0-1.11-.31-2.08-.31-.98-.93-1.72-.62-.73-1.58-1.16-.95-.42-2.22-.42-2.46 0-3.87 1.4-1.42 1.4-1.81 3.98m14.49 3.42h-14.6q.14 1.82.64 3.14.51 1.33 1.34 2.19.82.86 1.96 1.29 1.14.42 2.52.42t2.38-.32 1.75-.71 1.31-.72q.56-.32 1.09-.32.72 0 1.06.53l1.63 2.07q-.94 1.1-2.11 1.85-1.18.75-2.45 1.2-1.28.45-2.6.63t-2.57.18q-2.46 0-4.57-.81-2.12-.82-3.68-2.42-1.57-1.6-2.46-3.95-.9-2.36-.9-5.46 0-2.42.78-4.55t2.24-3.7q1.46-1.58 3.57-2.5 2.1-.92 4.75-.92 2.23 0 4.12.72 1.88.71 3.24 2.08t2.13 3.36.77 4.54q0 1.29-.28 1.74-.28.44-1.06.44m13.46 11.46q-3.08 0-4.73-1.74-1.64-1.73-1.64-4.79v-13.18h-2.42q-.46 0-.78-.3t-.32-.9v-2.25l3.79-.62 1.2-6.44q.11-.46.44-.72.32-.25.82-.25h2.95v7.43h6.3v4.05h-6.3v12.79q0 1.1.54 1.72t1.48.62q.53 0 .89-.13.35-.12.62-.26.26-.14.47-.26.21-.13.41-.13.26 0 .42.13.16.12.34.37l1.7 2.77q-1.24 1.03-2.85 1.56t-3.33.53"/></svg>