<svg xmlns="http://www.w3.org/2000/svg" width="600" height="400" viewBox="0 0 600 400"><rect width="100%" height="100%" fill="#59351F"/><path fill="#FFFFFF" d="M127.295 207.855h5.84q1.62 0 2.71-.38 1.1-.39 1.76-1.03.65-.65.94-1.51t.29-1.83q0-1.01-.32-1.81-.32-.81-1.01-1.38t-1.78-.87q-1.08-.3-2.61-.3h-5.82zm4.92-22.1h-4.92v8.99h4.6q2.96 0 4.48-1.08 1.52-1.07 1.52-3.41 0-2.43-1.38-3.47-1.38-1.03-4.3-1.03m-10.71-4.47h10.71q3.05 0 5.22.58 2.18.58 3.56 1.66 1.39 1.07 2.03 2.6.65 1.52.65 3.44 0 1.09-.32 2.09-.33 1-1 1.88-.68.87-1.72 1.58-1.05.71-2.49 1.2 6.41 1.44 6.41 6.92 0 1.98-.75 3.66-.75 1.67-2.2 2.89-1.44 1.21-3.54 1.9-2.11.69-4.82.69h-11.74zm37.24 8.69q2.45 0 4.46.79 2.01.8 3.44 2.26t2.21 3.57q.77 2.11.77 4.71 0 2.62-.77 4.73-.78 2.1-2.21 3.59-1.43 1.48-3.44 2.28-2.01.79-4.46.79-2.47 0-4.49-.79-2.02-.8-3.45-2.28-1.43-1.49-2.22-3.59-.78-2.11-.78-4.73 0-2.6.78-4.71.79-2.11 2.22-3.57t3.45-2.26q2.02-.79 4.49-.79m0 18.64q2.75 0 4.07-1.85 1.33-1.85 1.33-5.42t-1.33-5.44q-1.32-1.87-4.07-1.87-2.79 0-4.14 1.88-1.34 1.88-1.34 5.43t1.34 5.41q1.35 1.86 4.14 1.86m28.64-18.3h5.31v22.06h-3.25q-1.05 0-1.33-.97l-.37-1.76q-1.35 1.38-2.98 2.22-1.64.85-3.85.85-1.81 0-3.2-.61-1.38-.61-2.33-1.73-.94-1.12-1.43-2.65-.48-1.54-.48-3.39v-14.02h5.31v14.02q0 2.02.93 3.13.94 1.1 2.81 1.1 1.38 0 2.58-.61t2.28-1.69zm24.4 15.52v-9.89q-.88-1.09-1.96-1.54-1.07-.46-2.3-.46-1.2 0-2.17.46-.96.45-1.65 1.36t-1.06 2.32q-.36 1.41-.36 3.32 0 1.94.31 3.28.31 1.35.89 2.2t1.42 1.22q.84.38 1.87.38 1.66 0 2.82-.69t2.19-1.96m2.07-15.52h3.24v29.26h-5.31v-10q-1.31 1.4-2.97 2.26-1.65.86-3.84.86-1.81 0-3.32-.75-1.5-.75-2.59-2.18-1.08-1.43-1.67-3.54t-.59-4.82q0-2.45.66-4.55.67-2.11 1.92-3.66 1.24-1.55 2.98-2.42 1.75-.87 3.92-.87 2.06 0 3.46.71t2.49 1.92l.28-1.25q.28-.97 1.34-.97m22.18 0h5.31v22.06h-3.24q-1.06 0-1.34-.97l-.36-1.76q-1.36 1.38-2.99 2.22-1.63.85-3.85.85-1.8 0-3.19-.61t-2.33-1.73q-.95-1.12-1.43-2.65-.49-1.54-.49-3.39v-14.02h5.31v14.02q0 2.02.94 3.13.93 1.1 2.8 1.1 1.38 0 2.58-.61 1.21-.61 2.28-1.69zm14.75 8.49h10.02q0-1.03-.29-1.94-.29-.92-.87-1.6-.58-.69-1.47-1.09t-2.08-.4q-2.3 0-3.62 1.31-1.32 1.32-1.69 3.72m13.55 3.21h-13.66q.13 1.7.61 2.93.47 1.24 1.24 2.04.78.81 1.84 1.21 1.07.4 2.36.4t2.22-.3q.94-.31 1.64-.67.69-.37 1.22-.67t1.02-.3q.67 0 .99.5l1.53 1.93q-.88 1.03-1.98 1.73t-2.29 1.12-2.43.59-2.4.17q-2.3 0-4.28-.76-1.97-.76-3.44-2.26-1.46-1.49-2.3-3.7-.83-2.2-.83-5.1 0-2.26.73-4.25t2.09-3.46q1.37-1.47 3.34-2.33 1.96-.86 4.44-.86 2.08 0 3.84.66 1.77.67 3.04 1.95 1.26 1.28 1.98 3.14t.72 4.24q0 1.21-.25 1.63-.26.42-.99.42m12.57 10.7q-2.88 0-4.41-1.62-1.54-1.62-1.54-4.48v-12.32h-2.26q-.43 0-.73-.28t-.3-.84v-2.11l3.55-.58 1.12-6.02q.1-.43.4-.66.3-.24.78-.24h2.75v6.94h5.89v3.79h-5.89v11.95q0 1.03.5 1.61.51.59 1.39.59.5 0 .83-.12t.58-.25.44-.25.39-.12q.23 0 .38.12.16.12.33.36l1.59 2.58q-1.16.96-2.67 1.46-1.5.49-3.12.49m46.55-22.4h4.04l-7 22.06h-4.26q-.73 0-1.01-.95l-3.96-12.75q-.19-.64-.35-1.27-.16-.64-.27-1.28-.13.64-.29 1.3-.16.65-.36 1.3l-4.02 12.7q-.26.95-1.14.95h-4.08l-6.99-22.06h4.24q.58 0 .99.28.4.28.53.71l3.16 11.78q.24.97.42 1.89.19.93.31 1.85.24-.92.51-1.85.27-.92.57-1.89l3.65-11.82q.13-.43.51-.71t.91-.28h2.35q.56 0 .95.28.4.28.53.71l3.55 11.82q.28.97.52 1.9.25.94.49 1.86.28-1.82.79-3.76l3.25-11.78q.15-.43.54-.71.38-.28.92-.28m7.23 0h5.33v22.06h-5.33zm6.06-6.43q0 .69-.28 1.29t-.74 1.06q-.46.45-1.09.72-.62.26-1.33.26-.69 0-1.3-.26-.61-.27-1.07-.72-.45-.46-.72-1.06-.26-.6-.26-1.29 0-.71.26-1.33.27-.62.72-1.08.46-.45 1.07-.72.61-.26 1.3-.26.71 0 1.33.26.63.27 1.09.72.46.46.74 1.08t.28 1.33m12.04 28.83q-2.88 0-4.42-1.62t-1.54-4.48v-12.32h-2.25q-.43 0-.73-.28-.31-.28-.31-.84v-2.11l3.55-.58 1.12-6.02q.11-.43.41-.66.3-.24.77-.24h2.75v6.94h5.9v3.79h-5.9v11.95q0 1.03.51 1.61.5.59 1.39.59.49 0 .82-.12.34-.12.58-.25.25-.13.45-.25.19-.12.38-.12.24 0 .39.12t.32.36l1.59 2.58q-1.16.96-2.66 1.46-1.51.49-3.12.49m13.95-32.29v12.26q1.29-1.21 2.84-1.96t3.63-.75q1.81 0 3.21.61t2.33 1.72q.94 1.11 1.42 2.64.48 1.54.48 3.39v14.04h-5.31v-14.04q0-2.02-.92-3.13-.93-1.11-2.82-1.11-1.37 0-2.58.63-1.2.62-2.28 1.7v15.95h-5.31v-31.95zm36.02 27.43h5.84q1.62 0 2.71-.38 1.1-.39 1.75-1.03.66-.65.95-1.51t.29-1.83q0-1.01-.32-1.81-.32-.81-1.01-1.38t-1.78-.87q-1.08-.3-2.61-.3h-5.82zm4.92-22.1h-4.92v8.99h4.6q2.96 0 4.48-1.08 1.51-1.07 1.51-3.41 0-2.43-1.37-3.47-1.38-1.03-4.3-1.03m-10.71-4.47h10.71q3.05 0 5.22.58t3.56 1.66q1.39 1.07 2.03 2.6.65 1.52.65 3.44 0 1.09-.32 2.09-.33 1-1 1.88-.68.87-1.72 1.58-1.05.71-2.49 1.2 6.41 1.44 6.41 6.92 0 1.98-.75 3.66-.76 1.67-2.2 2.89-1.44 1.21-3.54 1.9-2.11.69-4.82.69h-11.74zm31.67 17.52h10.02q0-1.03-.29-1.94-.29-.92-.87-1.6-.58-.69-1.47-1.09-.9-.4-2.08-.4-2.3 0-3.62 1.31-1.32 1.32-1.69 3.72m13.55 3.21h-13.66q.13 1.7.61 2.93.47 1.24 1.24 2.04.78.81 1.84 1.21 1.07.4 2.36.4t2.22-.3q.94-.31 1.63-.67.7-.37 1.23-.67t1.02-.3q.67 0 .99.5l1.53 1.93q-.88 1.03-1.98 1.73t-2.29 1.12-2.43.59-2.4.17q-2.3 0-4.28-.76-1.97-.76-3.44-2.26-1.46-1.49-2.3-3.7-.84-2.2-.84-5.1 0-2.26.74-4.25.73-1.99 2.09-3.46 1.37-1.47 3.33-2.33 1.97-.86 4.44-.86 2.09 0 3.85.66 1.77.67 3.03 1.95 1.27 1.28 1.99 3.14t.72 4.24q0 1.21-.25 1.63-.26.42-.99.42m16.87 4.66v-3.72q-2.3.11-3.87.4t-2.51.74q-.95.45-1.36 1.06-.4.6-.4 1.31 0 1.39.82 2 .83.6 2.16.6 1.64 0 2.83-.59t2.33-1.8m-11.22-11.59-.95-1.69q3.81-3.49 9.16-3.49 1.94 0 3.47.64 1.52.63 2.58 1.76 1.05 1.13 1.6 2.7t.55 3.44v13.93h-2.41q-.76 0-1.16-.23-.41-.22-.65-.91l-.47-1.59q-.84.75-1.64 1.32-.79.57-1.65.96t-1.84.59-2.16.2q-1.4 0-2.58-.37-1.18-.38-2.04-1.13t-1.34-1.87q-.47-1.12-.47-2.6 0-.84.28-1.67t.91-1.58q.64-.75 1.65-1.42t2.48-1.16q1.48-.49 3.43-.81 1.96-.31 4.47-.37v-1.29q0-2.22-.94-3.28-.95-1.07-2.73-1.07-1.29 0-2.14.31-.85.3-1.5.67-.64.38-1.17.68-.52.3-1.17.3-.56 0-.95-.29-.38-.29-.62-.68m26.08-3.44.32 2.5q1.03-1.98 2.45-3.11t3.36-1.13q1.52 0 2.45.67l-.35 3.98q-.1.38-.31.54-.2.17-.55.17-.32 0-.95-.11-.64-.11-1.24-.11-.88 0-1.57.26t-1.23.74q-.55.48-.97 1.17t-.79 1.57v13.59h-5.31v-22.06h3.12q.82 0 1.14.29t.43 1.04"/></svg>