<svg xmlns="http://www.w3.org/2000/svg" width="600" height="400" viewBox="0 0 600 400"><rect width="100%" height="100%" fill="#C8FF80"/><path fill="#FFFFFF" d="M141.31 188.32h-15.09v10.06h12.74v5.05h-12.74v13.84h-6.35v-33.98h21.44zm4.44 4.84h5.83v24.11h-5.83zm6.62-7.03q0 .75-.3 1.41-.31.66-.81 1.15-.51.5-1.19.79t-1.46.29q-.75 0-1.42-.29t-1.16-.79q-.49-.49-.79-1.15-.29-.66-.29-1.41 0-.77.29-1.45.3-.69.79-1.18t1.16-.79q.67-.29 1.42-.29.78 0 1.46.29.68.3 1.19.79.5.49.81 1.18.3.68.3 1.45m10.25 8.49.35 2.72q1.13-2.16 2.68-3.39 1.55-1.24 3.67-1.24 1.67 0 2.68.73l-.38 4.35q-.12.42-.34.6-.22.17-.6.17-.35 0-1.04-.11-.7-.12-1.36-.12-.96 0-1.71.28t-1.35.81-1.06 1.28-.86 1.72v14.85h-5.8v-24.11h3.4q.9 0 1.25.32.35.31.47 1.14m16.99 7.82h10.95q0-1.13-.32-2.13-.31-.99-.95-1.75-.63-.75-1.61-1.18-.97-.44-2.26-.44-2.52 0-3.96 1.44-1.45 1.43-1.85 4.06m14.81 3.5h-14.93q.14 1.86.66 3.21t1.36 2.23q.85.88 2.01 1.32 1.17.43 2.58.43t2.43-.32q1.02-.33 1.79-.73.76-.4 1.33-.73.58-.33 1.12-.33.73 0 1.08.54l1.67 2.11q-.96 1.13-2.16 1.9-1.2.76-2.5 1.22-1.31.46-2.66.64-1.35.19-2.62.19-2.51 0-4.68-.83-2.16-.84-3.76-2.47-1.59-1.63-2.51-4.04t-.92-5.58q0-2.47.8-4.64.8-2.18 2.29-3.79t3.65-2.55q2.15-.94 4.85-.94 2.28 0 4.2.73 1.93.73 3.32 2.13 1.38 1.4 2.17 3.43t.79 4.64q0 1.32-.28 1.77-.29.46-1.08.46m35.72-12.78h4.41l-7.66 24.11h-4.65q-.8 0-1.1-1.03l-4.33-13.94q-.21-.7-.39-1.4-.17-.69-.29-1.4-.14.71-.32 1.43-.17.71-.39 1.42l-4.39 13.89q-.28 1.03-1.25 1.03h-4.46l-7.64-24.11h4.63q.64 0 1.08.3.45.31.59.78l3.45 12.88q.26 1.06.46 2.07t.34 2.02q.26-1.01.56-2.02.29-1.01.62-2.07l3.99-12.93q.14-.47.56-.77.41-.31.99-.31h2.57q.61 0 1.04.31.44.3.58.77l3.88 12.93q.3 1.06.57 2.08t.53 2.03q.31-2 .87-4.11l3.55-12.88q.16-.47.59-.78.42-.3 1.01-.3m18.37-.38q2.68 0 4.88.87t3.76 2.47 2.41 3.9q.84 2.3.84 5.15 0 2.86-.84 5.17-.85 2.3-2.41 3.92t-3.76 2.49-4.88.87q-2.7 0-4.91-.87t-3.77-2.49-2.42-3.92q-.86-2.31-.86-5.17 0-2.85.86-5.15t2.42-3.9 3.77-2.47 4.91-.87m0 20.38q3.01 0 4.46-2.02 1.44-2.02 1.44-5.93 0-3.9-1.44-5.94-1.45-2.05-4.46-2.05-3.05 0-4.52 2.06t-1.47 5.93q0 3.88 1.47 5.91 1.47 2.04 4.52 2.04m21.46-18.54.35 2.72q1.13-2.16 2.68-3.39 1.55-1.24 3.67-1.24 1.66 0 2.67.73l-.37 4.35q-.12.42-.34.6-.23.17-.6.17-.35 0-1.05-.11-.69-.12-1.35-.12-.96 0-1.71.28-.76.28-1.35.81-.6.53-1.06 1.28t-.86 1.72v14.85h-5.8v-24.11h3.4q.9 0 1.25.32.35.31.47 1.14m12.41-12.27h5.8v20h1.08q.59 0 .93-.16.34-.15.69-.62l6-7.4q.37-.49.83-.75t1.19-.26h5.31l-7.5 8.95q-.8 1.06-1.74 1.62.5.36.88.83.39.47.74 1.01l8.04 11.7h-5.24q-.68 0-1.17-.22-.5-.23-.83-.81l-6.15-9.15q-.33-.54-.69-.7-.35-.16-1.05-.16h-1.32v11.04h-5.8zm41.14 13.42-1.31 2.09q-.24.37-.49.53-.26.15-.66.15-.43 0-.91-.23-.48-.24-1.11-.53-.64-.3-1.45-.53-.81-.24-1.91-.24-1.72 0-2.69.73-.98.73-.98 1.9 0 .78.51 1.31.5.53 1.33.93.84.4 1.9.71 1.05.32 2.15.7 1.09.37 2.15.86 1.05.48 1.89 1.22.83.74 1.34 1.77.5 1.04.5 2.49 0 1.74-.62 3.21t-1.84 2.54q-1.23 1.07-3.02 1.67-1.8.6-4.15.6-1.25 0-2.43-.23-1.19-.22-2.28-.62-1.1-.4-2.02-.94-.93-.54-1.64-1.17l1.34-2.21q.26-.4.61-.62.36-.21.9-.21t1.02.31q.48.3 1.11.66.64.35 1.5.65.85.31 2.17.31 1.03 0 1.77-.25.74-.24 1.23-.64.48-.4.7-.93t.22-1.09q0-.85-.5-1.39-.51-.54-1.34-.94t-1.9-.72q-1.07-.31-2.19-.69t-2.18-.88q-1.07-.51-1.91-1.28-.83-.78-1.34-1.91-.5-1.12-.5-2.72 0-1.48.58-2.82.59-1.34 1.73-2.34t2.85-1.6q1.7-.6 3.93-.6 2.49 0 4.54.83 2.04.82 3.4 2.16m40.31 13.49q.51 0 .91.4l2.49 2.7q-2.06 2.56-5.08 3.92-3.02 1.37-7.25 1.37-3.79 0-6.81-1.3-3.02-1.29-5.15-3.59-2.14-2.31-3.28-5.5-1.14-3.2-1.14-6.98 0-3.83 1.22-7.02 1.22-3.18 3.44-5.48 2.22-2.31 5.3-3.59t6.82-1.28q3.71 0 6.59 1.23 2.88 1.22 4.9 3.19l-2.12 2.94q-.18.28-.48.49-.29.21-.81.21-.35 0-.73-.2-.37-.2-.82-.49t-1.03-.65q-.59-.35-1.37-.64-.77-.3-1.79-.5-1.03-.2-2.37-.2-2.28 0-4.17.82-1.89.81-3.25 2.35-1.37 1.53-2.12 3.76-.75 2.22-.75 5.06 0 2.87.81 5.1t2.2 3.76q1.38 1.53 3.26 2.34t4.05.81q1.29 0 2.34-.14 1.04-.14 1.92-.45t1.67-.79 1.56-1.18q.24-.21.5-.34t.54-.13m19.57 1.78v-4.06q-2.51.11-4.23.43-1.71.32-2.75.81-1.03.5-1.48 1.15-.44.66-.44 1.44 0 1.53.9 2.18.91.66 2.36.66 1.79 0 3.09-.65 1.31-.64 2.55-1.96m-12.26-12.66-1.04-1.86q4.16-3.81 10.01-3.81 2.12 0 3.79.7 1.66.69 2.82 1.92 1.15 1.24 1.75 2.95.6 1.72.6 3.76v15.23h-2.64q-.82 0-1.26-.25-.45-.24-.71-1l-.52-1.73q-.91.82-1.78 1.44t-1.81 1.05q-.94.42-2.01.64-1.07.23-2.36.23-1.53 0-2.82-.42-1.3-.41-2.24-1.23t-1.45-2.04q-.52-1.23-.52-2.85 0-.91.31-1.82.3-.9.99-1.73.7-.82 1.8-1.55 1.11-.72 2.72-1.27 1.61-.54 3.74-.88 2.14-.34 4.89-.41v-1.41q0-2.42-1.03-3.58-1.04-1.17-2.99-1.17-1.41 0-2.33.33-.93.33-1.64.74-.7.42-1.28.74-.57.33-1.28.33-.61 0-1.03-.31-.43-.32-.68-.74m28.41-4.16.4 1.9q.73-.73 1.54-1.35t1.71-1.06q.91-.43 1.94-.68t2.26-.25q1.97 0 3.5.67t2.55 1.88 1.55 2.89.53 3.7v15.35h-5.81v-15.35q0-2.2-1.01-3.41-1.01-1.22-3.08-1.22-1.5 0-2.82.69-1.31.68-2.49 1.85v17.44h-5.8v-24.11h3.55q1.12 0 1.48 1.06m36.61 15.91v-10.81q-.99-1.2-2.15-1.7-1.16-.49-2.5-.49-1.32 0-2.38.49-1.05.5-1.81 1.5-.75.99-1.15 2.53t-.4 3.64q0 2.11.34 3.58t.98 2.4q.63.92 1.55 1.34.92.41 2.04.41 1.81 0 3.08-.76 1.27-.75 2.4-2.13m0-27.78h5.8v34.92h-3.54q-1.16 0-1.46-1.06l-.49-2.32q-1.46 1.66-3.35 2.7-1.89 1.03-4.41 1.03-1.97 0-3.62-.82-1.64-.82-2.83-2.39-1.19-1.56-1.83-3.86-.65-2.3-.65-5.26 0-2.68.73-4.99.73-2.3 2.09-3.99t3.27-2.65q1.9-.95 4.27-.95 2.03 0 3.46.64 1.43.63 2.56 1.71zm11.61 0h5.8v34.92h-5.8zm16.19 20.09h10.95q0-1.13-.32-2.13-.31-.99-.95-1.75-.63-.75-1.61-1.18-.97-.44-2.26-.44-2.52 0-3.96 1.44-1.45 1.43-1.85 4.06m14.81 3.5h-14.93q.14 1.86.66 3.21t1.36 2.23q.85.88 2.01 1.32 1.17.43 2.58.43t2.43-.32q1.02-.33 1.79-.73.76-.4 1.33-.73.58-.33 1.12-.33.73 0 1.08.54l1.67 2.11q-.96 1.13-2.16 1.9-1.2.76-2.5 1.22-1.31.46-2.66.64-1.35.19-2.62.19-2.51 0-4.68-.83-2.16-.84-3.76-2.47-1.59-1.63-2.51-4.04t-.92-5.58q0-2.47.8-4.64.8-2.18 2.29-3.79t3.65-2.55q2.15-.94 4.85-.94 2.28 0 4.2.73 1.93.73 3.32 2.13 1.38 1.4 2.17 3.43t.79 4.64q0 1.32-.28 1.77-.29.46-1.08.46"/></svg>