<svg xmlns="http://www.w3.org/2000/svg" width="600" height="400" viewBox="0 0 600 400"><rect width="100%" height="100%" fill="#B44C43"/><path fill="#FFFFFF" d="M145.375 183.26h-16.05v10.7h13.55v5.37h-13.55v14.73h-6.75v-36.15h22.8zm4.6-6.35h6.17v37.15h-6.17zm23.7 11.1q2.85 0 5.18.92 2.34.93 4 2.63 1.67 1.7 2.57 4.15t.9 5.47q0 3.05-.9 5.5t-2.57 4.18q-1.66 1.72-4 2.65-2.33.93-5.18.93-2.88 0-5.23-.93t-4.01-2.65q-1.66-1.73-2.58-4.18-.91-2.45-.91-5.5 0-3.02.91-5.47.92-2.45 2.58-4.15t4.01-2.63q2.35-.92 5.23-.92m0 21.67q3.2 0 4.73-2.15 1.54-2.15 1.54-6.3t-1.54-6.32q-1.53-2.18-4.73-2.18-3.25 0-4.82 2.19-1.56 2.19-1.56 6.31 0 4.13 1.56 6.29 1.57 2.16 4.82 2.16m30.92-2.25v-4.32q-2.67.12-4.5.46-1.82.34-2.92.86-1.1.53-1.58 1.23-.47.7-.47 1.52 0 1.63.96 2.33t2.51.7q1.9 0 3.29-.69t2.71-2.09m-13.05-13.47-1.1-1.98q4.43-4.05 10.65-4.05 2.25 0 4.03.74 1.77.74 3 2.05 1.22 1.31 1.86 3.14.64 1.82.64 4v16.2h-2.8q-.88 0-1.35-.26-.48-.27-.75-1.07l-.55-1.85q-.98.88-1.9 1.54-.93.66-1.93 1.11t-2.14.69q-1.13.24-2.51.24-1.62 0-3-.44-1.37-.44-2.37-1.31-1-.88-1.55-2.18t-.55-3.02q0-.98.32-1.94.33-.96 1.06-1.84.74-.87 1.92-1.65 1.17-.77 2.88-1.35 1.72-.57 3.99-.93 2.28-.37 5.2-.44v-1.5q0-2.58-1.1-3.81-1.1-1.24-3.17-1.24-1.5 0-2.49.35t-1.74.79l-1.36.78q-.61.35-1.36.35-.65 0-1.1-.33-.45-.34-.73-.79m33.43 20.5q-3.35 0-5.14-1.89t-1.79-5.21v-14.33h-2.62q-.5 0-.85-.32-.35-.33-.35-.98v-2.45l4.12-.67 1.3-7q.13-.5.48-.78.35-.27.9-.27h3.2v8.07h6.85v4.4h-6.85v13.9q0 1.2.58 1.88.59.67 1.62.67.57 0 .96-.13.39-.14.67-.29.29-.15.52-.29.22-.14.45-.14.27 0 .45.14.17.14.37.41l1.85 3q-1.35 1.13-3.1 1.7-1.75.58-3.62.58m10.25-26.05h6.2v25.65h-6.2zm7.05-7.48q0 .8-.33 1.5-.32.7-.86 1.23-.54.52-1.26.84-.73.31-1.55.31-.8 0-1.52-.31-.71-.32-1.23-.84-.53-.53-.84-1.23t-.31-1.5q0-.82.31-1.55.31-.72.84-1.25.52-.52 1.23-.83.72-.32 1.52-.32.82 0 1.55.32.72.31 1.26.83.54.53.86 1.25.33.73.33 1.55m10.8 8.6.42 2.03q.78-.78 1.64-1.44t1.82-1.12q.97-.47 2.07-.73t2.4-.26q2.1 0 3.72.71 1.63.71 2.71 2 1.09 1.29 1.65 3.08.57 1.78.57 3.94v16.32h-6.18v-16.32q0-2.36-1.07-3.64-1.08-1.29-3.28-1.29-1.6 0-3 .72-1.4.73-2.65 1.98v18.55h-6.17v-25.65h3.77q1.2 0 1.58 1.12m32.22 11.08q1.15 0 2-.31.85-.32 1.41-.87.57-.55.85-1.32.29-.78.29-1.7 0-1.9-1.14-3.01-1.13-1.12-3.41-1.12-2.27 0-3.41 1.12-1.14 1.11-1.14 3.01 0 .9.29 1.67.29.78.85 1.34t1.42.88q.87.31 1.99.31m6.98 14.6q0-.75-.45-1.23-.45-.47-1.23-.73-.77-.26-1.81-.39t-2.2-.19-2.4-.11-2.41-.2q-1.03.57-1.67 1.35-.63.78-.63 1.8 0 .68.33 1.26.34.59 1.08 1.02.74.42 1.91.66 1.18.24 2.88.24 1.72 0 2.97-.27 1.25-.26 2.06-.72.82-.46 1.19-1.1.38-.64.38-1.39m-1.23-25.93h7.38v2.3q0 1.1-1.33 1.35l-2.3.43q.53 1.32.53 2.9 0 1.9-.77 3.44-.76 1.53-2.11 2.61-1.35 1.07-3.19 1.66-1.83.59-3.96.59-.75 0-1.45-.08-.7-.07-1.37-.2-1.2.73-1.2 1.63 0 .77.71 1.14.71.36 1.89.51 1.17.15 2.67.19 1.5.03 3.08.16 1.57.12 3.07.44 1.5.31 2.68.98 1.17.68 1.88 1.84.72 1.16.72 2.99 0 1.7-.84 3.3t-2.43 2.85q-1.58 1.25-3.9 2.01-2.31.77-5.26.77-2.9 0-5.05-.57-2.15-.56-3.57-1.5-1.43-.93-2.13-2.16-.7-1.22-.7-2.55 0-1.8 1.09-3.01 1.09-1.22 2.99-1.94-1.03-.53-1.63-1.4-.6-.88-.6-2.3 0-.58.21-1.19.22-.61.63-1.21t1.04-1.14q.62-.54 1.47-.96-1.95-1.05-3.06-2.8t-1.11-4.1q0-1.9.76-3.44t2.12-2.62q1.37-1.09 3.23-1.67 1.86-.57 4.06-.57 1.65 0 3.1.34 1.45.33 2.65.98m31.13 19.53h6.8q1.87 0 3.15-.45 1.27-.45 2.03-1.2.77-.75 1.1-1.75.34-1 .34-2.13 0-1.17-.37-2.11-.38-.94-1.18-1.6t-2.06-1.01-3.04-.35h-6.77zm5.72-25.7h-5.72v10.45h5.35q3.45 0 5.21-1.25t1.76-3.98q0-2.82-1.6-4.02t-5-1.2m-12.45-5.2h12.45q3.55 0 6.08.67 2.52.68 4.13 1.93 1.62 1.25 2.37 3.02.75 1.78.75 4 0 1.28-.38 2.44-.37 1.16-1.16 2.18-.79 1.01-2 1.83-1.21.83-2.89 1.4 7.45 1.68 7.45 8.05 0 2.3-.87 4.25-.88 1.96-2.55 3.37-1.68 1.41-4.13 2.21t-5.6.8h-13.65zm45.5 29.52v-4.32q-2.67.12-4.5.46-1.82.34-2.92.86-1.1.53-1.58 1.23-.47.7-.47 1.52 0 1.63.96 2.33t2.51.7q1.9 0 3.29-.69t2.71-2.09m-13.05-13.47-1.1-1.98q4.43-4.05 10.65-4.05 2.25 0 4.03.74 1.77.74 3 2.05 1.22 1.31 1.86 3.14.64 1.82.64 4v16.2h-2.8q-.88 0-1.35-.26-.48-.27-.75-1.07l-.55-1.85q-.98.88-1.9 1.54-.93.66-1.93 1.11t-2.14.69q-1.13.24-2.51.24-1.62 0-3-.44-1.37-.44-2.37-1.31-1-.88-1.55-2.18t-.55-3.02q0-.98.32-1.94.33-.96 1.06-1.84.74-.87 1.92-1.65 1.17-.77 2.88-1.35 1.72-.57 3.99-.93 2.28-.37 5.2-.44v-1.5q0-2.58-1.1-3.81-1.1-1.24-3.17-1.24-1.5 0-2.49.35t-1.74.79l-1.36.78q-.61.35-1.36.35-.65 0-1.1-.33-.45-.34-.73-.79m24.95-17.05h6.18v37.15h-6.18zm12.43 0h6.17v37.15h-6.17zm23.7 11.1q2.85 0 5.18.92 2.34.93 4 2.63 1.67 1.7 2.57 4.15t.9 5.47q0 3.05-.9 5.5t-2.57 4.18q-1.66 1.72-4 2.65-2.33.93-5.18.93-2.88 0-5.23-.93t-4.01-2.65q-1.66-1.73-2.58-4.18-.91-2.45-.91-5.5 0-3.02.91-5.47.92-2.45 2.58-4.15t4.01-2.63q2.35-.92 5.23-.92m0 21.67q3.2 0 4.73-2.15 1.54-2.15 1.54-6.3t-1.54-6.32q-1.53-2.18-4.73-2.18-3.25 0-4.82 2.19-1.56 2.19-1.56 6.31 0 4.13 1.56 6.29 1.57 2.16 4.82 2.16m28.72-21.67q2.85 0 5.19.92 2.34.93 4 2.63t2.56 4.15.9 5.47q0 3.05-.9 5.5t-2.56 4.18q-1.66 1.72-4 2.65t-5.19.93q-2.87 0-5.22-.93t-4.02-2.65q-1.66-1.73-2.57-4.18t-.91-5.5q0-3.02.91-5.47t2.57-4.15q1.67-1.7 4.02-2.63 2.35-.92 5.22-.92m0 21.67q3.2 0 4.74-2.15t1.54-6.3-1.54-6.32q-1.54-2.18-4.74-2.18-3.25 0-4.81 2.19t-1.56 6.31q0 4.13 1.56 6.29t4.81 2.16m22.73-20.15.42 2.03q.78-.78 1.64-1.44t1.82-1.12q.97-.47 2.07-.73t2.4-.26q2.1 0 3.72.71 1.63.71 2.71 2 1.09 1.29 1.65 3.08.57 1.78.57 3.94v16.32h-6.18v-16.32q0-2.36-1.07-3.64-1.08-1.29-3.28-1.29-1.6 0-3 .72-1.4.73-2.65 1.98v18.55h-6.17v-25.65h3.77q1.2 0 1.58 1.12"/></svg>