<svg xmlns="http://www.w3.org/2000/svg" width="600" height="400" viewBox="0 0 600 400"><rect width="100%" height="100%" fill="#497E76"/><path fill="#FFFFFF" d="M146.405 185.835h-18.3v12.2h15.45v6.12h-15.45v16.79h-7.7v-41.21h26zm5.24-7.24h7.04v42.35h-7.04zm27.02 12.65q3.25 0 5.91 1.06 2.67 1.05 4.56 2.99 1.9 1.94 2.92 4.73 1.03 2.79 1.03 6.24 0 3.48-1.03 6.27-1.02 2.8-2.92 4.76-1.89 1.97-4.56 3.02-2.66 1.06-5.91 1.06-3.28 0-5.96-1.06-2.68-1.05-4.57-3.02-1.9-1.96-2.94-4.76-1.04-2.79-1.04-6.27 0-3.45 1.04-6.24t2.94-4.73q1.89-1.94 4.57-2.99 2.68-1.06 5.96-1.06m0 24.71q3.65 0 5.4-2.45t1.75-7.18-1.75-7.21-5.4-2.48q-3.71 0-5.49 2.49-1.78 2.5-1.78 7.2t1.78 7.17q1.78 2.46 5.49 2.46m56.2-24.25h5.36l-9.29 29.24h-5.65q-.96 0-1.33-1.25l-5.25-16.9q-.26-.86-.47-1.7t-.36-1.7q-.17.86-.38 1.73t-.47 1.72l-5.33 16.85q-.34 1.25-1.51 1.25h-5.42l-9.26-29.24h5.62q.77 0 1.31.37t.71.94l4.19 15.62q.31 1.28.56 2.51.24 1.22.41 2.45.31-1.23.67-2.45.35-1.23.75-2.51l4.85-15.68q.17-.57.67-.94t1.21-.37h3.11q.74 0 1.26.37.53.37.7.94l4.71 15.68q.37 1.28.69 2.52.33 1.24.64 2.47.38-2.43 1.06-4.99l4.3-15.62q.2-.57.72-.94.51-.37 1.22-.37m14.91 11.26h13.28q0-1.37-.39-2.58-.38-1.21-1.15-2.13-.77-.91-1.95-1.44-1.19-.52-2.75-.52-3.05 0-4.81 1.74-1.75 1.73-2.23 4.93m17.95 4.24h-18.1q.17 2.25.8 3.89t1.65 2.71q1.03 1.07 2.44 1.6 1.41.52 3.12.52t2.95-.4q1.24-.39 2.17-.88.92-.48 1.62-.88t1.36-.4q.88 0 1.31.65l2.02 2.57q-1.17 1.37-2.62 2.29-1.45.93-3.04 1.49-1.58.55-3.22.78t-3.17.23q-3.05 0-5.68-1.01-2.62-1.02-4.56-3-1.93-1.98-3.05-4.9-1.11-2.92-1.11-6.77 0-2.99.97-5.63.97-2.63 2.78-4.58 1.81-1.96 4.42-3.1t5.88-1.14q2.77 0 5.1.89 2.34.88 4.02 2.58 1.68 1.69 2.64 4.16.95 2.46.95 5.63 0 1.59-.34 2.15-.34.55-1.31.55m13.14-13.73.43 3.3q1.37-2.62 3.25-4.12 1.88-1.49 4.44-1.49 2.03 0 3.25.88l-.45 5.27q-.15.52-.42.73t-.72.21q-.43 0-1.27-.14t-1.64-.14q-1.17 0-2.08.34t-1.64.98q-.73.65-1.28 1.56-.56.91-1.04 2.08v18.01h-7.04v-29.24h4.13q1.08 0 1.51.38.43.39.57 1.39m37.68 21.48h7.75q2.14 0 3.59-.51t2.32-1.37q.87-.85 1.26-1.99.38-1.14.38-2.42 0-1.34-.43-2.41-.42-1.07-1.34-1.83-.91-.75-2.35-1.15t-3.46-.4h-7.72zm6.52-29.29h-6.52v11.91h6.1q3.93 0 5.94-1.43 2.01-1.42 2.01-4.53 0-3.22-1.83-4.58-1.82-1.37-5.7-1.37m-14.19-5.93h14.19q4.05 0 6.93.77t4.72 2.19q1.83 1.43 2.69 3.45.85 2.03.85 4.56 0 1.45-.42 2.78-.43 1.33-1.33 2.48t-2.28 2.09-3.29 1.6q8.49 1.91 8.49 9.18 0 2.62-1 4.84-.99 2.23-2.9 3.84t-4.7 2.52q-2.8.91-6.39.91h-15.56zm51.87 33.66v-4.93q-3.05.14-5.13.52-2.08.39-3.33.99-1.26.6-1.8 1.39-.54.8-.54 1.74 0 1.85 1.1 2.65 1.09.8 2.86.8 2.17 0 3.75-.78 1.58-.79 3.09-2.38m-14.88-15.36-1.25-2.26q5.04-4.61 12.14-4.61 2.57 0 4.59.84t3.42 2.34q1.4 1.49 2.12 3.57.73 2.08.73 4.56v18.47h-3.19q-1 0-1.54-.3t-.86-1.21l-.62-2.11q-1.12 1-2.17 1.75-1.05.76-2.19 1.27t-2.44.79q-1.3.27-2.87.27-1.85 0-3.42-.5-1.56-.5-2.7-1.5t-1.77-2.48-.63-3.45q0-1.11.37-2.21.37-1.09 1.21-2.09.85-1 2.18-1.88 1.34-.89 3.3-1.54 1.95-.66 4.54-1.07 2.6-.41 5.93-.5v-1.71q0-2.93-1.25-4.34-1.26-1.42-3.62-1.42-1.71 0-2.84.4-1.12.4-1.98.9-.85.5-1.55.9t-1.56.4q-.74 0-1.25-.39-.51-.38-.83-.89m47.8-3.17-1.6 2.54q-.28.45-.6.64-.31.19-.79.19-.52 0-1.1-.29-.59-.28-1.36-.64t-1.75-.64q-.98-.29-2.32-.29-2.08 0-3.26.89-1.19.88-1.19 2.3 0 .95.62 1.59.61.64 1.62 1.12 1.01.49 2.29.87 1.29.39 2.61.84 1.33.46 2.61 1.04 1.28.59 2.29 1.48 1.02.9 1.63 2.16.61 1.25.61 3.02 0 2.11-.75 3.89-.76 1.78-2.24 3.08-1.48 1.29-3.66 2.02t-5.03.73q-1.51 0-2.95-.27-1.44-.28-2.77-.76-1.32-.48-2.45-1.14-1.12-.66-1.98-1.43l1.62-2.67q.32-.49.75-.75.42-.25 1.08-.25.65 0 1.24.37.58.37 1.35.8.77.42 1.81.8 1.04.37 2.64.37 1.25 0 2.15-.3t1.48-.79q.59-.48.86-1.12t.27-1.33q0-1.02-.61-1.68-.62-.66-1.63-1.14t-2.31-.87q-1.29-.38-2.65-.84-1.35-.46-2.65-1.07t-2.31-1.55-1.62-2.31-.61-3.31q0-1.79.71-3.42.71-1.62 2.09-2.83t3.45-1.94 4.77-.73q3.03 0 5.51 1 2.47 1 4.13 2.62m5.61-16.27h7.04v24.25h1.31q.72 0 1.13-.18.41-.19.84-.76l7.27-8.98q.45-.59 1.01-.91.55-.31 1.44-.31h6.44l-9.09 10.86q-.97 1.28-2.11 1.96.6.43 1.07 1t.89 1.23l9.75 14.19h-6.35q-.83 0-1.43-.27t-1-.98l-7.46-11.09q-.4-.66-.83-.86t-1.28-.2h-1.6v13.4h-7.04zm36.03 24.37h13.28q0-1.37-.39-2.58-.38-1.21-1.15-2.13-.77-.91-1.95-1.44-1.19-.52-2.75-.52-3.05 0-4.81 1.74-1.75 1.73-2.23 4.93m17.95 4.24h-18.1q.17 2.25.8 3.89t1.65 2.71q1.03 1.07 2.44 1.6 1.41.52 3.12.52t2.95-.4q1.24-.39 2.17-.88.92-.48 1.62-.88t1.36-.4q.88 0 1.31.65l2.02 2.57q-1.17 1.37-2.62 2.29-1.45.93-3.04 1.49-1.58.55-3.22.78t-3.17.23q-3.05 0-5.68-1.01-2.62-1.02-4.56-3-1.93-1.98-3.05-4.9-1.11-2.92-1.11-6.77 0-2.99.97-5.63.97-2.63 2.78-4.58 1.81-1.96 4.42-3.1t5.88-1.14q2.77 0 5.1.89 2.34.88 4.02 2.58 1.68 1.69 2.64 4.16.95 2.46.95 5.63 0 1.59-.34 2.15-.34.55-1.31.55m16.67 14.2q-3.82 0-5.85-2.16-2.04-2.15-2.04-5.94v-16.33h-2.99q-.57 0-.97-.37t-.4-1.11v-2.79l4.7-.77 1.48-7.98q.15-.57.54-.89.4-.31 1.03-.31h3.65v9.21h7.81v5.01h-7.81v15.85q0 1.37.67 2.13.67.77 1.84.77.65 0 1.09-.15.45-.16.77-.33.33-.17.59-.33.25-.15.51-.15.31 0 .51.15.2.16.43.47l2.11 3.42q-1.54 1.29-3.53 1.94-2 .66-4.14.66"/></svg>