<svg xmlns="http://www.w3.org/2000/svg" width="600" height="400" viewBox="0 0 600 400"><rect width="100%" height="100%" fill="#B5B8B1"/><path fill="#FFFFFF" d="M147.34 175.625h7.56v40.49h-7.56v-17.7h-19.01v17.7h-7.56v-40.49h7.56v17.42h19.01zm30.66 33.07v-4.84q-2.99.14-5.04.51-2.04.38-3.27.97t-1.77 1.37q-.53.79-.53 1.71 0 1.82 1.08 2.6 1.08.79 2.81.79 2.13 0 3.69-.77 1.55-.77 3.03-2.34m-14.61-15.09-1.23-2.21q4.95-4.54 11.92-4.54 2.52 0 4.51.83 1.99.82 3.36 2.29t2.09 3.52q.71 2.04.71 4.48v18.14h-3.13q-.98 0-1.52-.29-.53-.3-.84-1.19l-.61-2.08q-1.09.98-2.13 1.73-1.04.74-2.16 1.24-1.12.51-2.39.77-1.27.27-2.81.27-1.82 0-3.36-.49t-2.66-1.47-1.74-2.44q-.62-1.45-.62-3.39 0-1.09.37-2.17.36-1.07 1.19-2.05.82-.98 2.14-1.85t3.23-1.51q1.92-.65 4.47-1.05 2.55-.41 5.82-.49v-1.68q0-2.89-1.23-4.27-1.23-1.39-3.55-1.39-1.68 0-2.79.39t-1.95.88-1.52.89q-.69.39-1.53.39-.73 0-1.23-.38t-.81-.88m33.85-4.96.48 2.27q.86-.87 1.83-1.61t2.04-1.26q1.08-.52 2.31-.81 1.24-.3 2.69-.3 2.35 0 4.17.8t3.04 2.24 1.85 3.45q.63 2 .63 4.41v18.28h-6.92v-18.28q0-2.64-1.2-4.08t-3.67-1.44q-1.79 0-3.36.81t-2.97 2.21v20.78h-6.91v-28.73h4.23q1.34 0 1.76 1.26m43.62 18.96v-12.88q-1.17-1.43-2.56-2.02-1.38-.59-2.98-.59-1.57 0-2.83.59t-2.15 1.78q-.9 1.19-1.38 3.02-.47 1.84-.47 4.33 0 2.52.4 4.27.41 1.75 1.17 2.86.75 1.1 1.84 1.59 1.1.49 2.44.49 2.16 0 3.67-.89 1.51-.9 2.85-2.55m0-33.1h6.92v41.61h-4.23q-1.37 0-1.73-1.26l-.59-2.77q-1.74 1.99-3.99 3.22-2.26 1.23-5.25 1.23-2.35 0-4.31-.98t-3.38-2.84q-1.41-1.86-2.18-4.61-.77-2.74-.77-6.27 0-3.19.87-5.94.86-2.74 2.49-4.76 1.62-2.01 3.89-3.15 2.27-1.13 5.1-1.13 2.4 0 4.11.76 1.71.75 3.05 2.04zm35.98 35.73h7.62q2.1 0 3.53-.5 1.43-.51 2.28-1.35t1.23-1.96.38-2.38q0-1.31-.42-2.36t-1.32-1.8q-.89-.74-2.31-1.13-1.41-.39-3.4-.39h-7.59zm6.42-28.78h-6.42v11.7h6q3.86 0 5.83-1.4 1.98-1.4 1.98-4.45 0-3.17-1.79-4.51-1.8-1.34-5.6-1.34m-13.95-5.83h13.95q3.97 0 6.8.76 2.83.75 4.63 2.15 1.81 1.4 2.65 3.39t.84 4.48q0 1.43-.42 2.73t-1.3 2.44q-.88 1.13-2.24 2.06-1.36.92-3.24 1.56 8.35 1.88 8.35 9.02 0 2.58-.98 4.76t-2.86 3.77q-1.87 1.58-4.62 2.47-2.74.9-6.27.9h-15.29zm48.5 11.31q3.19 0 5.81 1.04t4.48 2.94 2.87 4.65q1.01 2.74 1.01 6.13 0 3.42-1.01 6.16t-2.87 4.68q-1.86 1.93-4.48 2.96-2.62 1.04-5.81 1.04-3.22 0-5.85-1.04-2.64-1.03-4.5-2.96-1.86-1.94-2.88-4.68t-1.02-6.16q0-3.39 1.02-6.13 1.02-2.75 2.88-4.65t4.5-2.94q2.63-1.04 5.85-1.04m0 24.28q3.58 0 5.3-2.41 1.73-2.41 1.73-7.05 0-4.65-1.73-7.09-1.72-2.43-5.3-2.43-3.64 0-5.39 2.45t-1.75 7.07 1.75 7.04 5.39 2.42m37.29-23.83h6.92v28.73h-4.23q-1.37 0-1.73-1.26l-.48-2.3q-1.76 1.8-3.89 2.9-2.13 1.11-5.01 1.11-2.36 0-4.16-.8-1.81-.8-3.04-2.25-1.23-1.46-1.86-3.46t-.63-4.41v-18.26h6.91v18.26q0 2.63 1.22 4.07t3.66 1.44q1.79 0 3.36-.79 1.56-.8 2.96-2.2zm31.78 20.22v-12.88q-1.14-1.43-2.54-2.02t-3-.59q-1.57 0-2.83.59t-2.15 1.78q-.9 1.19-1.38 3.02-.47 1.84-.47 4.33 0 2.52.4 4.27.41 1.75 1.17 2.86.75 1.1 1.84 1.59 1.1.49 2.44.49 2.16 0 3.67-.89 1.51-.9 2.85-2.55m2.69-20.22h4.23v38.11h-6.92v-13.02q-1.7 1.82-3.86 2.94t-5.01 1.12q-2.35 0-4.31-.98t-3.38-2.84q-1.41-1.86-2.18-4.61-.77-2.74-.77-6.27 0-3.19.87-5.94.86-2.74 2.49-4.76 1.62-2.01 3.89-3.15 2.27-1.13 5.1-1.13 2.68 0 4.5.92 1.82.93 3.25 2.5l.37-1.63q.36-1.26 1.73-1.26m28.9 0h6.91v28.73h-4.22q-1.38 0-1.74-1.26l-.48-2.3q-1.76 1.8-3.89 2.9-2.13 1.11-5.01 1.11-2.35 0-4.16-.8-1.8-.8-3.04-2.25-1.23-1.46-1.86-3.46t-.63-4.41v-18.26h6.92v18.26q0 2.63 1.22 4.07 1.21 1.44 3.65 1.44 1.79 0 3.36-.79 1.57-.8 2.97-2.2zm19.21 11.06h13.04q0-1.34-.37-2.53-.38-1.19-1.14-2.09-.75-.89-1.92-1.41-1.16-.52-2.7-.52-2.99 0-4.72 1.71-1.72 1.71-2.19 4.84m17.64 4.17h-17.78q.16 2.22.78 3.83t1.62 2.66q1.01 1.05 2.4 1.56 1.38.52 3.06.52t2.9-.39 2.13-.87q.91-.47 1.6-.87.68-.39 1.33-.39.86 0 1.28.65l1.99 2.52q-1.15 1.34-2.57 2.25-1.43.91-2.99 1.46-1.55.54-3.16.77-1.61.22-3.12.22-3 0-5.57-.99-2.58-1-4.48-2.94-1.91-1.95-3-4.82t-1.09-6.65q0-2.94.95-5.53t2.73-4.51 4.34-3.04 5.78-1.12q2.72 0 5.01.87 2.3.87 3.95 2.54 1.65 1.66 2.59 4.08.94 2.43.94 5.53 0 1.57-.34 2.12-.33.54-1.28.54m16.38 13.95q-3.76 0-5.76-2.12-2-2.11-2-5.83v-16.05H461q-.56 0-.95-.36-.39-.37-.39-1.09v-2.75l4.62-.75 1.45-7.84q.14-.56.53-.87.4-.31 1.01-.31h3.59v9.04h7.67v4.93h-7.67v15.57q0 1.34.65 2.1.66.76 1.81.76.64 0 1.08-.16.43-.15.75-.32.33-.17.58-.32.25-.16.5-.16.31 0 .51.16.19.15.42.46l2.07 3.36q-1.51 1.26-3.47 1.9-1.96.65-4.06.65"/></svg>