<svg xmlns="http://www.w3.org/2000/svg" width="600" height="400" viewBox="0 0 600 400"><rect width="100%" height="100%" fill="#F54021"/><path fill="#FFFFFF" d="M138.89 182.59h5.4v28.92h-5.4v-12.64h-13.58v12.64h-5.4v-28.92h5.4v12.44h13.58zm14.96 16.3h9.32q0-.96-.27-1.81t-.81-1.49-1.37-1.01-1.93-.37q-2.14 0-3.37 1.22t-1.57 3.46m12.6 2.98h-12.7q.12 1.58.56 2.73t1.16 1.9 1.71 1.12 2.19.37 2.07-.28 1.52-.62 1.14-.62.95-.28q.62 0 .92.46l1.42 1.8q-.82.96-1.84 1.61t-2.13 1.04-2.26.55-2.23.16q-2.14 0-3.98-.71t-3.2-2.1-2.14-3.44-.78-4.75q0-2.1.68-3.95t1.95-3.22 3.1-2.17 4.13-.8q1.94 0 3.58.62t2.82 1.81 1.85 2.92.67 3.95q0 1.12-.24 1.51t-.92.39m15.7 4.34v-3.46q-2.14.1-3.6.37t-2.34.69-1.26.98-.38 1.22q0 1.3.77 1.86t2.01.56q1.52 0 2.63-.55t2.17-1.67m-10.44-10.78-.88-1.58q3.54-3.24 8.52-3.24 1.8 0 3.22.59t2.4 1.64 1.49 2.51.51 3.2v12.96h-2.24q-.7 0-1.08-.21t-.6-.85l-.44-1.48q-.78.7-1.52 1.23t-1.54.89-1.71.55-2.01.19q-1.3 0-2.4-.35t-1.9-1.05-1.24-1.74-.44-2.42q0-.78.26-1.55t.85-1.47 1.53-1.32 2.31-1.08 3.19-.75 4.16-.35v-1.2q0-2.06-.88-3.05t-2.54-.99q-1.2 0-1.99.28t-1.39.63-1.09.63-1.09.28q-.52 0-.88-.27t-.58-.63m24.26-3.2.3 2.32q.96-1.84 2.28-2.89t3.12-1.05q1.42 0 2.28.62l-.32 3.7q-.1.36-.29.51t-.51.15q-.3 0-.89-.1t-1.15-.1q-.82 0-1.46.24t-1.15.69-.9 1.09-.73 1.46v12.64h-4.94v-20.52h2.9q.76 0 1.06.27t.4.97m17.4 19.6q-2.68 0-4.11-1.51t-1.43-4.17v-11.46h-2.1q-.4 0-.68-.26t-.28-.78v-1.96l3.3-.54 1.04-5.6q.1-.4.38-.62t.72-.22h2.56v6.46h5.48v3.52h-5.48v11.12q0 .96.47 1.5t1.29.54q.46 0 .77-.11t.54-.23.41-.23.36-.11q.22 0 .36.11t.3.33l1.48 2.4q-1.08.9-2.48 1.36t-2.9.46m35.28-26.52-1.34 2.54q-.24.42-.51.61t-.67.19q-.42 0-.91-.31t-1.17-.69-1.59-.69-2.15-.31q-1.12 0-1.96.27t-1.41.75-.85 1.15-.28 1.47q0 1.02.57 1.7t1.51 1.16 2.14.86 2.46.81 2.46 1 2.14 1.44 1.51 2.13.57 3.06q0 1.96-.67 3.67t-1.96 2.98-3.15 2-4.26.73q-1.38 0-2.72-.27t-2.57-.77-2.31-1.2-1.92-1.56l1.58-2.58q.2-.28.52-.47t.68-.19q.5 0 1.08.41t1.38.91 1.87.91 2.57.41q2.3 0 3.56-1.09t1.26-3.13q0-1.14-.57-1.86t-1.51-1.21-2.14-.83-2.44-.74-2.44-.96-2.14-1.46-1.51-2.25-.57-3.33q0-1.58.63-3.08t1.83-2.66 2.96-1.86 4.04-.7q2.56 0 4.72.8t3.68 2.24m9.36-3.52v11.4q1.2-1.12 2.64-1.82t3.38-.7q1.68 0 2.98.57t2.17 1.6 1.32 2.46.45 3.15v13.06h-4.94v-13.06q0-1.88-.86-2.91t-2.62-1.03q-1.28 0-2.4.58t-2.12 1.58v14.84h-4.94v-29.72zm28.46 24.42v-3.46q-2.14.1-3.6.37t-2.34.69-1.26.98-.38 1.22q0 1.3.77 1.86t2.01.56q1.52 0 2.63-.55t2.17-1.67m-10.44-10.78-.88-1.58q3.54-3.24 8.52-3.24 1.8 0 3.22.59t2.4 1.64 1.49 2.51.51 3.2v12.96h-2.24q-.7 0-1.08-.21t-.6-.85l-.44-1.48q-.78.7-1.52 1.23t-1.54.89-1.71.55-2.01.19q-1.3 0-2.4-.35t-1.9-1.05-1.24-1.74-.44-2.42q0-.78.26-1.55t.85-1.47 1.53-1.32 2.31-1.08 3.19-.75 4.16-.35v-1.2q0-2.06-.88-3.05t-2.54-.99q-1.2 0-1.99.28t-1.39.63-1.09.63-1.09.28q-.52 0-.88-.27t-.58-.63m24.84 1.56v9.2q.84 1.02 1.83 1.44t2.15.42q1.12 0 2.02-.42t1.53-1.28.97-2.17.34-3.09q0-1.8-.29-3.05t-.83-2.03-1.31-1.14-1.75-.36q-1.54 0-2.62.65t-2.04 1.83m-.66-5.1.4 1.9q1.26-1.42 2.86-2.3t3.76-.88q1.68 0 3.07.7t2.4 2.03 1.56 3.28.55 4.47q0 2.3-.62 4.26t-1.77 3.4-2.78 2.25-3.65.81q-1.72 0-2.94-.53t-2.18-1.47v8.4h-4.94v-27.22h3.02q.96 0 1.26.9m22.34 7h9.32q0-.96-.27-1.81t-.81-1.49-1.37-1.01-1.93-.37q-2.14 0-3.37 1.22t-1.57 3.46m12.6 2.98h-12.7q.12 1.58.56 2.73t1.16 1.9 1.71 1.12 2.19.37 2.07-.28 1.52-.62 1.14-.62.95-.28q.62 0 .92.46l1.42 1.8q-.82.96-1.84 1.61t-2.13 1.04-2.26.55-2.23.16q-2.14 0-3.98-.71t-3.2-2.1-2.14-3.44-.78-4.75q0-2.1.68-3.95t1.95-3.22 3.1-2.17 4.13-.8q1.94 0 3.58.62t2.82 1.81 1.85 2.92.67 3.95q0 1.12-.24 1.51t-.92.39m20.74 5.44h5.44q1.5 0 2.52-.36t1.63-.96.88-1.4.27-1.7q0-.94-.3-1.69t-.94-1.28-1.65-.81-2.43-.28h-5.42zm4.58-20.56h-4.58v8.36h4.28q2.76 0 4.17-1t1.41-3.18q0-2.26-1.28-3.22t-4-.96m-9.96-4.16h9.96q2.84 0 4.86.54t3.31 1.54 1.89 2.42.6 3.2q0 1.02-.3 1.95t-.93 1.74-1.6 1.47-2.31 1.12q5.96 1.34 5.96 6.44 0 1.84-.7 3.4t-2.04 2.69-3.3 1.77-4.48.64h-10.92zm36.4 23.62v-3.46q-2.14.1-3.6.37t-2.34.69-1.26.98-.38 1.22q0 1.3.77 1.86t2.01.56q1.52 0 2.63-.55t2.17-1.67m-10.44-10.78-.88-1.58q3.54-3.24 8.52-3.24 1.8 0 3.22.59t2.4 1.64 1.49 2.51.51 3.2v12.96h-2.24q-.7 0-1.08-.21t-.6-.85l-.44-1.48q-.78.7-1.52 1.23t-1.54.89-1.71.55-2.01.19q-1.3 0-2.4-.35t-1.9-1.05-1.24-1.74-.44-2.42q0-.78.26-1.55t.85-1.47 1.53-1.32 2.31-1.08 3.19-.75 4.16-.35v-1.2q0-2.06-.88-3.05t-2.54-.99q-1.2 0-1.99.28t-1.39.63-1.09.63-1.09.28q-.52 0-.88-.27t-.58-.63m19.96-13.64h4.94v29.72h-4.94zm9.94 0h4.94v29.72h-4.94zm18.96 8.88q2.28 0 4.15.74t3.2 2.1 2.05 3.32.72 4.38q0 2.44-.72 4.4t-2.05 3.34-3.2 2.12-4.15.74q-2.3 0-4.18-.74t-3.21-2.12-2.06-3.34-.73-4.4q0-2.42.73-4.38t2.06-3.32 3.21-2.1 4.18-.74m0 17.34q2.56 0 3.79-1.72t1.23-5.04-1.23-5.06-3.79-1.74q-2.6 0-3.85 1.75t-1.25 5.05 1.25 5.03 3.85 1.73m22.98-17.34q2.28 0 4.15.74t3.2 2.1 2.05 3.32.72 4.38q0 2.44-.72 4.4t-2.05 3.34-3.2 2.12-4.15.74q-2.3 0-4.18-.74t-3.21-2.12-2.06-3.34-.73-4.4q0-2.42.73-4.38t2.06-3.32 3.21-2.1 4.18-.74m0 17.34q2.56 0 3.79-1.72t1.23-5.04-1.23-5.06-3.79-1.74q-2.6 0-3.85 1.75t-1.25 5.05 1.25 5.03 3.85 1.73m18.18-16.12.34 1.62q.62-.62 1.31-1.15t1.46-.9 1.65-.58 1.92-.21q1.68 0 2.98.57t2.17 1.6 1.32 2.46.45 3.15v13.06h-4.94v-13.06q0-1.88-.86-2.91t-2.62-1.03q-1.28 0-2.4.58t-2.12 1.58v14.84h-4.94v-20.52h3.02q.96 0 1.26.9"/></svg>