<svg xmlns="http://www.w3.org/2000/svg" width="600" height="400" viewBox="0 0 600 400"><rect width="100%" height="100%" fill="#FF5CA8"/><path fill="#FFFFFF" d="M130.265 196.275h5.22q1.93 0 3.36-.49 1.43-.48 2.37-1.37.95-.9 1.42-2.19.47-1.28.47-2.87 0-1.51-.47-2.73t-1.4-2.08q-.94-.86-2.37-1.31-1.43-.46-3.38-.46h-5.22zm-7-18.91h12.22q3.77 0 6.53.89 2.75.88 4.55 2.47 1.79 1.58 2.66 3.79t.87 4.84q0 2.73-.91 5-.91 2.28-2.73 3.92t-4.56 2.55-6.41.91h-5.22v13.23h-7zm42.98 10.51q2.96 0 5.39.96 2.44.96 4.16 2.73 1.73 1.77 2.67 4.32.94 2.54.94 5.69 0 3.17-.94 5.72t-2.67 4.34q-1.72 1.8-4.16 2.76-2.43.96-5.39.96-2.99 0-5.43-.96-2.45-.96-4.18-2.76-1.73-1.79-2.68-4.34-.94-2.55-.94-5.72 0-3.15.94-5.69.95-2.55 2.68-4.32t4.18-2.73q2.44-.96 5.43-.96m0 22.54q3.33 0 4.93-2.24 1.6-2.23 1.6-6.55 0-4.31-1.6-6.58-1.6-2.26-4.93-2.26-3.38 0-5.01 2.28-1.62 2.27-1.62 6.56t1.62 6.54q1.63 2.25 5.01 2.25m24.49-14.33v11.96q1.09 1.33 2.38 1.88 1.29.54 2.8.54 1.45 0 2.62-.54 1.17-.55 1.99-1.67t1.26-2.82.44-4.02q0-2.34-.37-3.96-.38-1.63-1.08-2.64t-1.71-1.48q-1-.47-2.27-.47-2 0-3.41.84-1.4.85-2.65 2.38m-.86-6.63.52 2.47q1.64-1.84 3.72-2.99 2.08-1.14 4.89-1.14 2.18 0 3.99.91t3.12 2.64 2.03 4.26q.71 2.54.71 5.81 0 2.99-.8 5.54-.81 2.55-2.3 4.42-1.5 1.87-3.62 2.93-2.12 1.05-4.74 1.05-2.24 0-3.82-.69-1.59-.69-2.84-1.91v10.92h-6.42v-35.39h3.93q1.24 0 1.63 1.17m52.76 19.87q2.03 0 3.62-.68 1.6-.67 2.7-1.9 1.09-1.22 1.67-2.96.59-1.74.59-3.9v-22.52h6.99v22.52q0 3.35-1.08 6.2t-3.09 4.91q-2.02 2.07-4.9 3.23-2.89 1.16-6.5 1.16-3.64 0-6.53-1.16-2.88-1.16-4.9-3.23-2.01-2.06-3.09-4.91t-1.08-6.2v-22.52h6.99v22.49q0 2.16.59 3.9.58 1.75 1.69 2.98 1.1 1.24 2.7 1.91 1.6.68 3.63.68m28.88-13.24v11.96q1.1 1.33 2.38 1.88 1.29.54 2.8.54 1.45 0 2.62-.54 1.17-.55 1.99-1.67t1.26-2.82q.45-1.7.45-4.02 0-2.34-.38-3.96-.38-1.63-1.08-2.64t-1.7-1.48-2.28-.47q-2 0-3.4.84-1.41.85-2.66 2.38m-.85-6.63.52 2.47q1.63-1.84 3.71-2.99 2.08-1.14 4.89-1.14 2.19 0 3.99.91 1.81.91 3.12 2.64 1.32 1.73 2.03 4.26.72 2.54.72 5.81 0 2.99-.81 5.54t-2.3 4.42q-1.5 1.87-3.62 2.93-2.11 1.05-4.74 1.05-2.24 0-3.82-.69-1.59-.69-2.84-1.91v10.92h-6.42v-35.39h3.93q1.25 0 1.64 1.17m44.61 20.05h7.07q1.95 0 3.28-.47t2.12-1.25 1.14-1.82.35-2.21q0-1.22-.39-2.19-.39-.98-1.22-1.67t-2.14-1.05q-1.32-.36-3.16-.36h-7.05zm5.96-26.73h-5.96v10.87h5.57q3.58 0 5.42-1.3 1.83-1.3 1.83-4.13 0-2.94-1.66-4.19-1.67-1.25-5.2-1.25m-12.95-5.41h12.95q3.69 0 6.31.71 2.63.7 4.31 2 1.67 1.3 2.45 3.14.78 1.85.78 4.16 0 1.33-.39 2.54t-1.21 2.26q-.81 1.05-2.08 1.91-1.26.86-3 1.46 7.75 1.74 7.75 8.37 0 2.39-.91 4.42t-2.65 3.5-4.29 2.3-5.83.83h-14.19zm47.32 30.71v-4.5q-2.78.13-4.68.48t-3.04.9q-1.15.55-1.64 1.27-.5.73-.5 1.59 0 1.69 1 2.42 1.01.73 2.62.73 1.97 0 3.42-.72 1.44-.71 2.82-2.17m-13.57-14.01-1.15-2.06q4.6-4.21 11.08-4.21 2.34 0 4.18.77 1.85.76 3.12 2.13 1.28 1.36 1.94 3.26t.66 4.16v16.85h-2.91q-.91 0-1.4-.27-.5-.28-.78-1.11l-.57-1.92q-1.02.91-1.98 1.6t-2 1.15q-1.04.47-2.23.72-1.18.25-2.61.25-1.69 0-3.12-.46-1.43-.45-2.47-1.36t-1.61-2.27q-.57-1.35-.57-3.14 0-1.02.34-2.02.33-1 1.1-1.91t1.99-1.71q1.22-.81 3-1.41t4.15-.97q2.37-.38 5.41-.46v-1.56q0-2.68-1.15-3.96-1.14-1.29-3.3-1.29-1.56 0-2.59.36-1.02.37-1.8.82-.78.46-1.42.82-.64.37-1.42.37-.67 0-1.14-.36-.47-.35-.75-.81m25.94-17.74h6.43v38.64h-6.43zm12.93 0h6.42v38.64h-6.42zm24.64 11.55q2.97 0 5.4.96t4.16 2.73 2.66 4.32q.94 2.54.94 5.69 0 3.17-.94 5.72-.93 2.55-2.66 4.34-1.73 1.8-4.16 2.76t-5.4.96q-2.99 0-5.43-.96t-4.17-2.76q-1.73-1.79-2.68-4.34t-.95-5.72q0-3.15.95-5.69.95-2.55 2.68-4.32t4.17-2.73 5.43-.96m0 22.54q3.33 0 4.93-2.24 1.6-2.23 1.6-6.55 0-4.31-1.6-6.58-1.6-2.26-4.93-2.26-3.38 0-5 2.28-1.63 2.27-1.63 6.56t1.63 6.54q1.62 2.25 5 2.25m29.88-22.54q2.96 0 5.39.96t4.16 2.73 2.67 4.32q.93 2.54.93 5.69 0 3.17-.93 5.72-.94 2.55-2.67 4.34-1.73 1.8-4.16 2.76t-5.39.96q-2.99 0-5.44-.96-2.44-.96-4.17-2.76-1.73-1.79-2.68-4.34t-.95-5.72q0-3.15.95-5.69.95-2.55 2.68-4.32t4.17-2.73q2.45-.96 5.44-.96m0 22.54q3.33 0 4.92-2.24 1.6-2.23 1.6-6.55 0-4.31-1.6-6.58-1.59-2.26-4.92-2.26-3.38 0-5.01 2.28-1.62 2.27-1.62 6.56t1.62 6.54q1.63 2.25 5.01 2.25m23.63-20.96.44 2.11q.81-.81 1.71-1.5.89-.68 1.89-1.17 1.01-.48 2.15-.75t2.5-.27q2.18 0 3.87.74t2.82 2.08 1.72 3.2q.58 1.86.58 4.09v16.98h-6.42v-16.98q0-2.44-1.12-3.78t-3.4-1.34q-1.67 0-3.12.75-1.46.76-2.76 2.06v19.29h-6.42v-26.68h3.92q1.25 0 1.64 1.17"/></svg>